<?xml version="1.0" encoding="UTF-8" standalone="no"?>
<!-- Created with Inkscape (http://www.inkscape.org/) -->

<svg
   xmlns:dc="http://purl.org/dc/elements/1.1/"
   xmlns:cc="http://creativecommons.org/ns#"
   xmlns:rdf="http://www.w3.org/1999/02/22-rdf-syntax-ns#"
   xmlns:svg="http://www.w3.org/2000/svg"
   xmlns="http://www.w3.org/2000/svg"
   xmlns:sodipodi="http://sodipodi.sourceforge.net/DTD/sodipodi-0.dtd"
   xmlns:inkscape="http://www.inkscape.org/namespaces/inkscape"
   width="24"
   height="24"
   id="svg3049"
   version="1.1"
   inkscape:version="0.91 r13725"
   sodipodi:docname="krudio-light-off-tray.svg"
   inkscape:export-filename="/home/uri/.kde/share/icons/NITRUX-KDE/16x16/actions/view-right-new.png"
   inkscape:export-xdpi="30"
   inkscape:export-ydpi="30">
  <defs
     id="defs3051" />
  <sodipodi:namedview
     id="base"
     pagecolor="#ffffff"
     bordercolor="#666666"
     borderopacity="1.0"
     inkscape:pageopacity="0.0"
     inkscape:pageshadow="2"
     inkscape:zoom="14.06"
     inkscape:cx="-1.2741137"
     inkscape:cy="8.5983214"
     inkscape:document-units="px"
     inkscape:current-layer="layer1"
     showgrid="false"
     fit-margin-top="0"
     fit-margin-left="0"
     fit-margin-right="0"
     fit-margin-bottom="0"
     inkscape:window-width="1600"
     inkscape:window-height="853"
     inkscape:window-x="0"
     inkscape:window-y="26"
     inkscape:window-maximized="1"
     inkscape:showpageshadow="false"
     borderlayer="true"
     inkscape:snap-bbox="true"
     inkscape:object-nodes="true"
     showguides="false"
     showborder="true">
    <inkscape:grid
       type="xygrid"
       id="grid4085" />
    <sodipodi:guide
       position="2.0000044,14.00003"
       orientation="12,0"
       id="guide4075" />
    <sodipodi:guide
       position="2.0000044,2.0000296"
       orientation="0,12"
       id="guide4077" />
    <sodipodi:guide
       position="14.000004,2.0000296"
       orientation="-12,0"
       id="guide4079" />
    <sodipodi:guide
       position="14.000004,14.00003"
       orientation="0,-12"
       id="guide4081" />
  </sodipodi:namedview>
  <metadata
     id="metadata3054">
    <rdf:RDF>
      <cc:Work
         rdf:about="">
        <dc:format>image/svg+xml</dc:format>
        <dc:type
           rdf:resource="http://purl.org/dc/dcmitype/StillImage" />
        <dc:title></dc:title>
      </cc:Work>
    </rdf:RDF>
  </metadata>
  <g
     inkscape:label="Capa 1"
     inkscape:groupmode="layer"
     id="layer1"
     transform="translate(-421.71429,-523.79074)">
    <g
       id="g4255">
      <path
         id="path4252"
         transform="translate(421.71429,523.79074)"
         d="M 17.554688 2 C 16.763267 2 16.03042 2.6368944 16 3.4277344 L 16 8 L 3.4277344 8 C 2.6363044 8 2 8.7515388 2 9.5429688 L 2 20.572266 C 2 21.363696 2.6363044 22 3.4277344 22 L 20.572266 22 C 21.363696 22 22 21.363696 22 20.572266 L 22 9.5429688 C 22 8.7515388 21.343006 8.17978 20.572266 8 L 19 8 L 19 3.4277344 C 19 2.6363044 18.346117 2 17.554688 2 z M 9 10 C 11.76141 10 14 12.23858 14 15 C 14 17.76142 11.76141 20 9 20 C 6.23856 20 4 17.76143 4 15 C 4 12.23858 6.23857 10 9 10 z "
         style="opacity:1;fill:#f2f2f2;fill-opacity:1;stroke:none" />
      <path
         inkscape:connector-curvature="0"
         id="rect4148"
         d="m 430.7143,535.79074 a 2.9999946,2.9999946 0 0 0 -3.00001,2.99999 2.9999946,2.9999946 0 0 0 3.00001,3.00001 2.9999946,2.9999946 0 0 0 2.99999,-3.00001 2.9999946,2.9999946 0 0 0 -2.99999,-2.99999 z"
         style="opacity:1;fill:#f2f2f2;fill-opacity:1;stroke:none" />
    </g>
  </g>
</svg>
