<?xml version="1.0" encoding="UTF-8" standalone="no"?>
<!-- Created with Inkscape (http://www.inkscape.org/) -->

<svg
   xmlns:dc="http://purl.org/dc/elements/1.1/"
   xmlns:cc="http://creativecommons.org/ns#"
   xmlns:rdf="http://www.w3.org/1999/02/22-rdf-syntax-ns#"
   xmlns:svg="http://www.w3.org/2000/svg"
   xmlns="http://www.w3.org/2000/svg"
   xmlns:sodipodi="http://sodipodi.sourceforge.net/DTD/sodipodi-0.dtd"
   xmlns:inkscape="http://www.inkscape.org/namespaces/inkscape"
   width="16"
   height="16"
   id="svg952"
   version="1.1"
   inkscape:version="0.91 r13725"
   sodipodi:docname="search.svg">
  <defs
     id="defs954">
    <style
       type="text/css"
       id="current-color-scheme">
      .ColorScheme-Text {
        color:#4d4d4d;
      }
      .ColorScheme-Background {
        color:#eff0f1;
      }
      .ColorScheme-Highlight {
        color:#3daee9;
      }
      .ColorScheme-ViewText {
        color:#31363b;
      }
      .ColorScheme-ViewBackground {
        color:#fcfcfc;
      }
      .ColorScheme-ViewHover {
        color:#93cee9;
      }
      .ColorScheme-ViewFocus{
        color:#3daee9;
      }
      .ColorScheme-ButtonText {
        color:#31363b;
      }
      .ColorScheme-ButtonBackground {
        color:#eff0f1;
      }
      .ColorScheme-ButtonHover {
        color:#93cee9;
      }
      .ColorScheme-ButtonFocus{
        color:#3daee9;
      }
      </style>
  </defs>
  <sodipodi:namedview
     id="base"
     pagecolor="#ffffff"
     bordercolor="#666666"
     borderopacity="1.0"
     inkscape:pageopacity="0.0"
     inkscape:pageshadow="2"
     inkscape:zoom="32"
     inkscape:cx="4.434162"
     inkscape:cy="7.1852049"
     inkscape:document-units="px"
     inkscape:current-layer="layer1"
     showgrid="true"
     inkscape:window-width="1600"
     inkscape:window-height="853"
     inkscape:window-x="0"
     inkscape:window-y="26"
     inkscape:window-maximized="1"
     showguides="true"
     inkscape:guide-bbox="true"
     inkscape:showpageshadow="false"
     borderlayer="true">
    <inkscape:grid
       type="xygrid"
       id="grid4063" />
    <sodipodi:guide
       position="2,14.000017"
       orientation="12,0"
       id="guide3284" />
    <sodipodi:guide
       position="2,2.0000174"
       orientation="0,12"
       id="guide3286" />
    <sodipodi:guide
       position="14,2.0000174"
       orientation="-12,0"
       id="guide3288" />
    <sodipodi:guide
       position="14,14.000017"
       orientation="0,-12"
       id="guide3290" />
    <sodipodi:guide
       position="9,7.0000174"
       orientation="5,0"
       id="guide3304" />
    <sodipodi:guide
       position="9,2.0000174"
       orientation="0,5"
       id="guide3306" />
    <sodipodi:guide
       position="14,2.0000174"
       orientation="-5,0"
       id="guide3308" />
    <sodipodi:guide
       position="14,7.0000174"
       orientation="0,-5"
       id="guide3310" />
  </sodipodi:namedview>
  <metadata
     id="metadata957">
    <rdf:RDF>
      <cc:Work
         rdf:about="">
        <dc:format>image/svg+xml</dc:format>
        <dc:type
           rdf:resource="http://purl.org/dc/dcmitype/StillImage" />
        <dc:title></dc:title>
      </cc:Work>
    </rdf:RDF>
  </metadata>
  <g
     inkscape:label="Capa 1"
     inkscape:groupmode="layer"
     id="layer1"
     transform="translate(0,-1036.3622)">
    <path
       id="path4147"
       transform="translate(0,1036.3622)"
       d="M 6.5 2 C 4.0070042 2 2 4.0070042 2 6.5 C 2 8.9929958 4.0070042 11 6.5 11 C 7.5651785 11 8.5297344 10.620009 9.2988281 10.005859 L 13.292969 14 L 14 13.292969 L 10.005859 9.2988281 C 10.620009 8.5297344 11 7.5651785 11 6.5 C 11 4.0070042 8.9929958 2 6.5 2 z M 6.5 3 C 8.438997 3 10 4.561003 10 6.5 C 10 8.438997 8.438997 10 6.5 10 C 4.561003 10 3 8.438997 3 6.5 C 3 4.561003 4.561003 3 6.5 3 z "
       style="fill:none;fill-opacity:1;stroke:#ffffff;stroke-opacity:1;stroke-width:2;stroke-miterlimit:4;stroke-dasharray:none;opacity:0.5" />
    <path
       style="fill:#4d4d4d;fill-opacity:1;stroke:none"
       d="M 6.5 2 C 4.0070042 2 2 4.0070042 2 6.5 C 2 8.9929958 4.0070042 11 6.5 11 C 7.5651785 11 8.5297344 10.620009 9.2988281 10.005859 L 13.292969 14 L 14 13.292969 L 10.005859 9.2988281 C 10.620009 8.5297344 11 7.5651785 11 6.5 C 11 4.0070042 8.9929958 2 6.5 2 z M 6.5 3 C 8.438997 3 10 4.561003 10 6.5 C 10 8.438997 8.438997 10 6.5 10 C 4.561003 10 3 8.438997 3 6.5 C 3 4.561003 4.561003 3 6.5 3 z "
       transform="translate(0,1036.3622)"
       id="rect3294" />
  </g>
</svg>
